<?xml version="1.0" encoding="UTF-8" standalone="no"?>
<!DOCTYPE svg PUBLIC "-//W3C//DTD SVG 1.1//EN" "http://www.w3.org/Graphics/SVG/1.1/DTD/svg11.dtd">
<svg width="100%" height="100%" viewBox="0 0 74 74" version="1.1" xmlns="http://www.w3.org/2000/svg" xmlns:xlink="http://www.w3.org/1999/xlink" xml:space="preserve" xmlns:serif="http://www.serif.com/" style="fill-rule:evenodd;clip-rule:evenodd;stroke-linecap:round;stroke-linejoin:round;stroke-miterlimit:1.5;">
    <g transform="matrix(1,0,0,1,-48.5077,-409.772)">
        <g transform="matrix(0.276827,0,0,0.276827,35.7771,348.607)">
            <g transform="matrix(7.74416,0,0,7.74416,-18.7459,-764.144)">
                <path d="M42.075,135.971C42.075,131.381 38.348,127.655 33.758,127.655L17.125,127.655C12.535,127.655 8.809,131.381 8.809,135.971L8.809,152.604C8.809,157.194 12.535,160.921 17.125,160.921L33.758,160.921C38.348,160.921 42.075,157.194 42.075,152.604L42.075,135.971Z" style="fill:url(#_Linear1);stroke:rgb(53,53,53);stroke-width:0.9px;"/>
            </g>
            <g transform="matrix(0.206303,0,0,0.206303,95.7595,269.765)">
                <path d="M633.333,300L633.333,593.333C633.333,630.67 633.333,649.34 626.067,663.6C619.677,676.143 609.477,686.343 596.933,692.733C582.673,700 564.003,700 526.667,700L273.333,700C235.996,700 217.328,700 203.067,692.733C190.523,686.343 180.324,676.143 173.933,663.6C166.667,649.34 166.667,630.67 166.667,593.333L166.667,206.667C166.667,169.33 166.667,150.661 173.933,136.401C180.324,123.856 190.523,113.658 203.067,107.266C217.328,100 235.997,100 273.333,100L433.333,100M633.333,300L433.333,100M633.333,300L466.667,300C448.257,300 433.333,285.076 433.333,266.667L433.333,100" style="fill:none;fill-rule:nonzero;stroke:rgb(172,172,172);stroke-width:36.54px;stroke-miterlimit:4;"/>
            </g>
        </g>
    </g>
    <defs>
        <linearGradient id="_Linear1" x1="0" y1="0" x2="1" y2="0" gradientUnits="userSpaceOnUse" gradientTransform="matrix(-12.1807,28.4779,-28.4779,-12.1807,33.6726,132.443)"><stop offset="0" style="stop-color:rgb(43,43,43);stop-opacity:1"/><stop offset="1" style="stop-color:rgb(20,20,20);stop-opacity:1"/></linearGradient>
    </defs>
</svg>
