<?xml version="1.0" encoding="UTF-8" standalone="no"?>
<!DOCTYPE svg PUBLIC "-//W3C//DTD SVG 1.1//EN" "http://www.w3.org/Graphics/SVG/1.1/DTD/svg11.dtd">
<svg width="100%" height="100%" viewBox="0 0 1072 1072" version="1.1" xmlns="http://www.w3.org/2000/svg" xmlns:xlink="http://www.w3.org/1999/xlink" xml:space="preserve" xmlns:serif="http://www.serif.com/" style="fill-rule:evenodd;clip-rule:evenodd;stroke-linecap:round;stroke-linejoin:round;stroke-miterlimit:1.5;">
    <g transform="matrix(1,0,0,1,-325.848,-1542.05)">
        <g transform="matrix(1.09625,0,0,1.09625,-599.401,-838.279)">
            <path d="M1236.42,2268.62C1261.94,2243.09 1296.56,2228.75 1332.66,2228.75C1368.76,2228.75 1403.38,2243.09 1428.9,2268.62C1514.36,2354.07 1638.57,2478.29 1724.03,2563.74C1749.55,2589.26 1763.89,2623.88 1763.89,2659.98C1763.89,2696.08 1749.55,2730.7 1724.03,2756.22C1638.57,2841.68 1514.36,2965.89 1428.9,3051.35C1403.38,3076.87 1368.76,3091.21 1332.66,3091.21C1296.56,3091.21 1261.94,3076.87 1236.42,3051.35C1150.97,2965.89 1026.75,2841.68 941.298,2756.22C915.773,2730.7 901.433,2696.08 901.433,2659.98C901.433,2623.88 915.773,2589.26 941.298,2563.74C1026.75,2478.29 1150.97,2354.07 1236.42,2268.62Z" style="fill:white;stroke:black;stroke-width:2.09px;"/>
        </g>
    </g>
</svg>
