<?xml version="1.0" encoding="UTF-8" standalone="no"?>
<!DOCTYPE svg PUBLIC "-//W3C//DTD SVG 1.1//EN" "http://www.w3.org/Graphics/SVG/1.1/DTD/svg11.dtd">
<svg width="100%" height="100%" viewBox="0 0 1263 1263" version="1.1" xmlns="http://www.w3.org/2000/svg" xmlns:xlink="http://www.w3.org/1999/xlink" xml:space="preserve" xmlns:serif="http://www.serif.com/" style="fill-rule:evenodd;clip-rule:evenodd;stroke-linecap:round;stroke-linejoin:round;stroke-miterlimit:1.5;">
    <g transform="matrix(1,0,0,1,-471.498,-1772.76)">
        <g transform="matrix(1.22521,0,0,1.22521,-530.269,-855.254)">
            <path d="M1246.55,2258.49C1294.11,2210.93 1371.21,2210.93 1418.77,2258.49C1507.6,2347.31 1645.33,2485.05 1734.15,2573.87C1781.71,2621.43 1781.71,2698.53 1734.15,2746.09C1645.33,2834.92 1507.6,2972.65 1418.77,3061.47C1371.21,3109.03 1294.11,3109.03 1246.55,3061.47C1157.73,2972.65 1019.99,2834.92 931.168,2746.09C883.609,2698.53 883.609,2621.43 931.168,2573.87C1019.99,2485.05 1157.73,2347.31 1246.55,2258.49Z" style="fill:none;stroke:white;stroke-width:54.86px;"/>
        </g>
    </g>
</svg>
